PathFileType	4	(X/Y/Z)	Walk8.trc
DataRate	CameraRate	NumFrames	NumMarkers	Units	OrigDataRate	OrigDataStartFrame	OrigNumFrames
200.000000	200.000000	4	69	mm	200.000000	596	868
Frame#	Times		RCAR		LowerBodyModelVer		LMT5		LTB1		LACR1		LTB2		LFHD		LMT1		RUA1		LToe		RFHD		RASI		RElbow		LUA1		STRN		RACR1		RFA1		RTH3		CLAV		RBHD		LTH3		RWRU		LCAR		RTH2		RLFC		LTH1		RTH1		RBack		RTB2		RTB4		LTH2		RTB3		LFA1		LElbow		LWRR		LLFC		C7		RMT1		RTH4		LPSI		RToe		RTB1		LTB4		LWRU		LTH4		LElbowM		LTB3		RPSI		LMMAL		SACR		RLMAL		RMMAL		LBHD		RCAL		RMT5		RWRR		T10		LASI		LCAL		LHJC		MidPelvis		OPelvis		PELOrigin		RHJC		XPelvis		YPelvis		ZPelvis		LLMAL		RElbowM
			X1	Y1	Z1	X2	Y2	Z2	X3	Y3	Z3	X4	Y4	Z4	X5	Y5	Z5	X6	Y6	Z6	X7	Y7	Z7	X8	Y8	Z8	X9	Y9	Z9	X10	Y10	Z10	X11	Y11	Z11	X12	Y12	Z12	X13	Y13	Z13	X14	Y14	Z14	X15	Y15	Z15	X16	Y16	Z16	X17	Y17	Z17	X18	Y18	Z18	X19	Y19	Z19	X20	Y20	Z20	X21	Y21	Z21	X22	Y22	Z22	X23	Y23	Z23	X24	Y24	Z24	X25	Y25	Z25	X26	Y26	Z26	X27	Y27	Z27	X28	Y28	Z28	X29	Y29	Z29	X30	Y30	Z30	X31	Y31	Z31	X32	Y32	Z32	X33	Y33	Z33	X34	Y34	Z34	X35	Y35	Z35	X36	Y36	Z36	X37	Y37	Z37	X38	Y38	Z38	X39	Y39	Z39	X40	Y40	Z40	X41	Y41	Z41	X42	Y42	Z42	X43	Y43	Z43	X44	Y44	Z44	X45	Y45	Z45	X46	Y46	Z46	X47	Y47	Z47	X48	Y48	Z48	X49	Y49	Z49	X50	Y50	Z50	X51	Y51	Z51	X52	Y52	Z52	X53	Y53	Z53	X54	Y54	Z54	X55	Y55	Z55	X56	Y56	Z56	X57	Y57	Z57	X58	Y58	Z58	X59	Y59	Z59	X60	Y60	Z60	X61	Y61	Z61	X62	Y62	Z62	X63	Y63	Z63	X64	Y64	Z64	X65	Y65	Z65	X66	Y66	Z66	X67	Y67	Z67	X68	Y68	Z68	X69	Y69	Z69

596	2.98	-287.83	769.8	344.69	9	2014	4	-200.01	24.318	-14.695	-215.69	337.24	12.234	-365.17	1365	-124.63	-244.27	250.09	-43.181	-275.21	1589.2	-24.45	-173.26	30.907	66.297	-365.68	1180.5	280.15	-103.23	25.4	42.911	-263.43	1594.2	69.671	-269.02	956.41	187.74	-405.73	1057.7	310.26	-403.73	1187.4	-217.06	-243.98	1226.8	33.012	-369.16	1361.6	187.78	-388.16	911.94	329.3	-338.95	551.66	219.23	-303.87	1330.1	32.022	-411.36	1538.1	106.28	-282.17	593.84	-118.84	-356.06	806.16	338.13	-443.6	768.1	-278.56	-283.8	640.15	212.86	-348.47	465.21	205.34	-306.86	751.98	-181.5	-338.85	721.79	244.56	-494.32	1309.7	144.56	-499.58	293.53	192.76	-484.24	268.22	137.3	-240.23	690.37	-133	-558.01	226.34	134.01	-490.72	939.15	-265.06	-468.71	1073.4	-242.63	-437.21	815.66	-236.09	-260.37	475.71	-76.872	-443.06	1407.5	39.473	-661.96	79.542	77.321	-340.32	635.55	229.05	-496.1	955.84	-25.094	-639.57	32.466	107.71	-407.49	312.44	146.09	-228.19	251.44	16.025	-492.29	823.92	-281.97	-295.86	675.26	-146.25	-493.4	1048.1	-165.93	-238.93	166.46	17.372	-503.53	952.76	64.454	-274.9	65.138	78.303	-499.82	954.3	19.68	-677.94	193.99	154.72	-656.41	189.13	74.411	-422.73	1524.2	-33.324	-729.66	236.64	112.88	-662.24	88.268	147.02	-303.43	818.51	292.36	-512.71	1140.9	27.062	-234.26	964.14	-98.447	-350.17	31.156	27.31	-304.92	869.09	-63.1	-375.73	957.29	32.163	-251.64	960.28	44.646	-251.64	960.28	44.646	-328.56	863.83	131.51	-172.25	962.15	54.341	-253.76	1040.2	46.549	-261.29	958.13	124.03	-285.48	59.095	-6.178	-417.42	1026.5	217.05
597	2.985	-284.55	769.7	343.53	9	2014	4	-200.03	24.298	-14.708	-214.77	337.03	12.123	-358.84	1365.9	-124.49	-243.65	249.99	-43.283	-269.05	1590.3	-24.572	-173.33	30.934	66.288	-360.27	1181.2	280.19	-103.31	25.429	42.924	-257.27	1595.3	69.546	-263.58	957.29	188.33	-400.69	1058.6	310.08	-396.01	1188.2	-217.14	-237.93	1227.6	33.211	-363.18	1362.5	187.96	-383.92	912.71	328.98	-328.79	552.98	220.14	-297.78	1331	32.123	-405.09	1538.9	106.19	-279.02	594.12	-118.87	-352.48	806.84	337.81	-430.13	768.76	-278.24	-274.86	642.31	214.19	-336.54	466.63	206.41	-302.56	752.42	-181.58	-331.58	723.27	244.75	-488.35	1310.5	144.36	-486.24	295.18	193.89	-470.28	269.63	138.93	-236.37	690.3	-133.01	-544.36	227.7	135.51	-480.17	939.02	-265.55	-460.01	1073.8	-243.25	-424.71	816.45	-235.83	-258.51	475.73	-77.007	-436.87	1408.5	39.528	-646.29	80.25	80.386	-331.57	636.9	229.68	-490.11	957.01	-25.589	-623.4	33.621	111.87	-393.87	313.84	147.63	-227.57	251.28	15.918	-479.92	823.61	-281.95	-292.14	675.67	-146.34	-485.28	1048.3	-166.8	-238.63	166.37	17.299	-497.71	953.88	63.943	-274.91	65.201	78.231	-493.91	955.44	19.177	-664.34	195.33	155.92	-642.57	189.99	75.562	-416.44	1524.9	-33.413	-716.74	236.88	113.62	-647.28	89.457	150.61	-300.34	818.69	291.55	-506.68	1141.9	26.847	-228.36	964.63	-98.139	-350.22	31.174	27.239	-299.33	869.64	-62.736	-369.94	958.2	32.137	-245.97	960.96	45.097	-245.97	960.96	45.097	-323.27	864.65	132.06	-166.59	962.69	54.899	-247.94	1040.9	46.903	-255.73	958.93	124.47	-285.51	59.109	-6.2004	-412.83	1027.5	216.88
598	2.99	-281.27	769.62	342.4	9	2014	4	-200.05	24.274	-14.724	-213.87	336.83	11.973	-352.56	1366.8	-124.36	-243.09	249.9	-43.4	-262.89	1591.3	-24.673	-173.39	30.962	66.273	-354.94	1181.9	280.27	-103.4	25.469	42.93	-251.12	1596.4	69.442	-258.13	958.2	188.92	-395.67	1059.4	309.92	-388.3	1189	-217.22	-231.91	1228.5	33.434	-357.2	1363.4	188.14	-379.69	913.46	328.68	-318.73	554.38	221.02	-291.7	1331.9	32.223	-398.82	1539.7	106.12	-275.91	594.4	-118.88	-348.89	807.51	337.49	-416.56	769.51	-277.9	-266.04	644.51	215.54	-324.65	468.16	207.43	-298.34	752.81	-181.67	-324.39	724.76	244.99	-482.38	1311.4	144.17	-472.8	296.81	194.94	-456.18	271.01	140.49	-232.58	690.23	-133.02	-530.51	228.93	136.98	-469.54	938.91	-266.05	-451.26	1074.2	-243.89	-412.14	817.29	-235.55	-256.72	475.77	-77.127	-430.7	1409.4	39.596	-630.11	80.763	83.413	-322.92	638.29	230.32	-484.15	958.18	-26.047	-606.6	34.689	115.96	-380.18	315.31	149.08	-226.98	251.14	15.783	-467.46	823.34	-281.93	-288.48	676.05	-146.4	-477.15	1048.5	-167.71	-238.34	166.29	17.193	-491.89	955.04	63.468	-274.92	65.274	78.158	-488.02	956.61	18.711	-650.49	196.36	157.03	-628.46	190.57	76.643	-410.16	1525.7	-33.491	-703.65	236.68	114.28	-631.76	90.495	154.09	-297.23	818.89	290.75	-500.66	1142.9	26.63	-222.5	965.04	-97.829	-350.28	31.198	27.167	-293.79	870.15	-62.334	-364.17	959.11	32.128	-240.32	961.62	45.546	-240.32	961.62	45.546	-318.01	865.5	132.66	-160.95	963.19	55.445	-242.12	1041.6	47.23	-250.18	959.72	124.91	-285.55	59.13	-6.2269	-408.3	1028.5	216.73
599	2.995	-278	769.56	341.3	9	2014	4	-200.07	24.247	-14.744	-213	336.65	11.79	-346.32	1367.7	-124.22	-242.6	249.84	-43.529	-256.74	1592.3	-24.754	-173.44	30.99	66.251	-349.66	1182.6	280.36	-103.49	25.519	42.929	-244.96	1597.4	69.359	-252.68	959.14	189.49	-390.69	1060.2	309.77	-380.61	1189.7	-217.31	-225.91	1229.3	33.684	-351.22	1364.3	188.33	-375.48	914.21	328.39	-308.77	555.83	221.89	-285.62	1332.8	32.32	-392.55	1540.5	106.06	-272.84	594.67	-118.87	-345.31	808.18	337.17	-402.91	770.34	-277.54	-257.33	646.76	216.91	-312.8	469.79	208.42	-294.2	753.17	-181.75	-317.28	726.23	245.26	-476.42	1312.2	143.99	-459.26	298.38	195.9	-441.98	272.33	141.96	-228.86	690.16	-133.02	-516.49	230.02	138.41	-458.84	938.83	-266.56	-442.47	1074.5	-244.53	-399.53	818.18	-235.24	-254.99	475.81	-77.229	-424.54	1410.3	39.674	-613.48	81.088	86.389	-314.36	639.72	230.98	-478.23	959.35	-26.46	-589.21	35.665	119.96	-366.43	316.84	150.42	-226.4	251.02	15.624	-454.9	823.13	-281.91	-284.87	676.41	-146.44	-469	1048.7	-168.66	-238.07	166.22	17.057	-486.08	956.23	63.039	-274.93	65.354	78.083	-482.16	957.79	18.289	-636.41	197.07	158.05	-614.08	190.86	77.656	-403.89	1526.4	-33.558	-690.39	236.05	114.85	-615.73	91.367	157.43	-294.1	819.11	289.98	-494.66	1143.9	26.411	-216.68	965.38	-97.525	-350.34	31.23	27.095	-288.29	870.63	-61.901	-358.42	960.03	32.137	-234.68	962.26	45.984	-234.68	962.26	45.984	-312.77	866.38	133.27	-155.32	963.67	55.969	-236.3	1042.2	47.522	-244.64	960.53	125.34	-285.59	59.157	-6.2572	-403.81	1029.5	216.61
